<svg width="136px" height="136px" viewBox="-3.12 -3.12 30.24 30.24" fill="none" xmlns="http://www.w3.org/2000/svg"><g id="SVGRepo_bgCarrier" stroke-width="0" transform="translate(0,0), scale(1)"><rect x="-3.12" y="-3.12" width="30.24" height="30.24" rx="15.12" fill="#ffff" strokewidth="0"></rect></g><g id="SVGRepo_tracerCarrier" stroke-linecap="round" stroke-linejoin="round"></g><g id="SVGRepo_iconCarrier"> <path opacity="0.1" d="M17 10C17 13.866 13.866 17 10 17C6.13401 17 3 13.866 3 10C3 6.13401 6.13401 3 10 3C13.866 3 17 6.13401 17 10Z" fill="#323232"></path> <path d="M15 15L21 21" stroke="#323232" stroke-width="2" stroke-linecap="round" stroke-linejoin="round"></path> <path d="M17 10C17 13.866 13.866 17 10 17C6.13401 17 3 13.866 3 10C3 6.13401 6.13401 3 10 3C13.866 3 17 6.13401 17 10Z" stroke="#323232" stroke-width="2"></path> </g></svg>